<?xml version="1.0" encoding="UTF-8" standalone="no"?>
<!-- Created with Inkscape (http://www.inkscape.org/) -->

<svg
   width="98.669113mm"
   height="98.669113mm"
   viewBox="0 0 98.669113 98.669113"
   version="1.1"
   id="svg1"
   inkscape:version="1.4 (e7c3feb1, 2024-10-09)"
   sodipodi:docname="favicon.svg"
   xml:space="preserve"
   inkscape:export-filename="favicon.png"
   inkscape:export-xdpi="96"
   inkscape:export-ydpi="96"
   xmlns:inkscape="http://www.inkscape.org/namespaces/inkscape"
   xmlns:sodipodi="http://sodipodi.sourceforge.net/DTD/sodipodi-0.dtd"
   xmlns="http://www.w3.org/2000/svg"
   xmlns:svg="http://www.w3.org/2000/svg"><sodipodi:namedview
     id="namedview1"
     pagecolor="#ffffff"
     bordercolor="#000000"
     borderopacity="0.25"
     inkscape:showpageshadow="2"
     inkscape:pageopacity="0.0"
     inkscape:pagecheckerboard="0"
     inkscape:deskcolor="#d1d1d1"
     inkscape:document-units="mm"
     inkscape:zoom="0.92244473"
     inkscape:cx="189.71326"
     inkscape:cy="102.44516"
     inkscape:window-width="1512"
     inkscape:window-height="870"
     inkscape:window-x="0"
     inkscape:window-y="38"
     inkscape:window-maximized="0"
     inkscape:current-layer="g5" /><defs
     id="defs1" /><g
     inkscape:label="Layer 1"
     inkscape:groupmode="layer"
     id="layer1"
     transform="translate(-45.915329,-67.407616)"><g
       id="g5"
       transform="matrix(2.7755612,0,0,2.7755612,-87.496917,-191.23656)"><rect
         style="fill:#ffffff;stroke:none;stroke-width:0.572505;fill-opacity:1"
         id="rect1"
         width="35.549248"
         height="35.549248"
         x="48.066765"
         y="93.186264" /><path
         id="path2"
         style="fill:#2b1979;fill-opacity:1;stroke-width:0.187553"
         d="m 82.773136,109.06385 c -3.569854,-0.13902 -7.266111,0.87384 -11.931055,3.31917 -4.384136,2.2981 -7.480112,2.84195 -10.082072,2.3456 -2.60196,-0.49634 -4.543668,-1.93711 -6.808887,-3.26389 -1.012521,-0.59305 -2.01534,-1.04612 -2.972428,-1.40198 -0.707036,1.19298 -1.344433,2.4276 -1.901693,3.69952 -0.3446,1.03504 -1.270814,2.14223 -0.939994,3.26802 5.7865,6.50194 14.075973,10.68971 22.700423,11.70522 3.50382,0.15979 7.084376,0.22517 10.527006,-0.51986 0.92655,-0.40826 0.801375,-1.72385 1.153935,-2.5368 1.18292,-4.36895 1.292009,-8.95869 0.876949,-13.44104 -0.175497,-1.06251 -0.381508,-2.12237 -0.622184,-3.17396 z" /><path
         id="path4"
         style="fill:#2b1979;fill-opacity:1;stroke-width:0.187553"
         d="m 74.535912,93.186261 c -0.49343,0.115633 -0.9871,0.231632 -1.48053,0.347266 -8.503441,2.106373 -16.093224,7.550393 -20.984765,14.804263 0.939628,0.36929 1.914138,0.82749 2.89233,1.40043 2.362982,1.38404 4.107162,2.63183 6.171716,3.02566 2.064555,0.39383 4.615556,0.0287 8.777242,-2.15284 4.629618,-2.42682 8.58288,-3.49751 12.372372,-3.47266 -0.728313,-2.6209 -1.716842,-5.16308 -3.101103,-7.521501 -1.3122,-2.284514 -2.656192,-4.707146 -4.647262,-6.430618 z" /></g></g></svg>
